HIERARCHY
ROOT Hips
{
	OFFSET 0.00 0.00 0.00
	CHANNELS 6 Xposition Yposition Zposition Xrotation Yrotation Zrotation
	JOINT Spine
	{
		OFFSET 0.00000 4.88528 0.00000
		CHANNELS 3 Xrotation Yrotation Zrotation
		JOINT Head
		{
			OFFSET 0.00000 16.49416 0.00000
			CHANNELS 3 Xrotation Yrotation Zrotation
			End Site
			{
				OFFSET 0.00000 4.52755 0.00000
			}
		}
		JOINT LeftShoulder
		{
			OFFSET 0.00000 10.66345 0.00000
			CHANNELS 3 Xrotation Yrotation Zrotation
			JOINT LeftArm
			{
				OFFSET 7.53191 0.00000 0.00000
				CHANNELS 3 Xrotation Yrotation Zrotation
				JOINT LeftForeArm
				{
					OFFSET 10.22920 0.00000 0.00000
					CHANNELS 3 Yrotation Zrotation Xrotation
					JOINT LeftHand
					{
						OFFSET 8.67349 0.00000 0.00000
						CHANNELS 3 Xrotation Yrotation Zrotation
						JOINT LeftHandThumb1
						{
							OFFSET 0.00000 0.00000 0.00000
							CHANNELS 3 Xrotation Zrotation Yrotation
							End Site
							{
								OFFSET 0.00000 0.00000 3.93700
							}
						}
						End Site
						{
							OFFSET 3.93700 0.00000 0.00000
						}
					}
				}
			}
		}
		JOINT RightShoulder
		{
			OFFSET 0.00000 10.66345 0.00000
			CHANNELS 3 Xrotation Yrotation Zrotation
			JOINT RightArm
			{
				OFFSET -7.53191 0.00000 0.00000
				CHANNELS 3 Xrotation Yrotation Zrotation
				JOINT RightForeArm
				{
					OFFSET -10.22920 0.00000 0.00000
					CHANNELS 3 Yrotation Zrotation Xrotation
					JOINT RightHand
					{
						OFFSET -8.67349 0.00000 0.00000
						CHANNELS 3 Xrotation Yrotation Zrotation
						JOINT RightHandThumb1
						{
							OFFSET 0.00000 0.00000 0.00000
							CHANNELS 3 Xrotation Zrotation Yrotation
							End Site
							{
								OFFSET 0.00000 0.00000 3.93700
							}
						}
						End Site
						{
							OFFSET -3.93700 0.00000 0.00000
						}
					}
				}
			}
		}
	}
	JOINT LeftUpLeg
	{
		OFFSET 2.67219 0.00000 0.00000
		CHANNELS 3 Xrotation Yrotation Zrotation
		JOINT LeftLeg
		{
			OFFSET 0.00000 -16.26339 0.00000
			CHANNELS 3 Xrotation Yrotation Zrotation
			JOINT LeftFoot
			{
				OFFSET 0.00000 -14.32816 0.00000
				CHANNELS 3 Xrotation Yrotation Zrotation
				JOINT LeftToeBase
				{
					OFFSET 0.00000 -1.30219 4.85985
					CHANNELS 3 Xrotation Yrotation Zrotation
					End Site
					{
						OFFSET 0.00000 0.00000 2.95275
					}
				}
			}
		}
	}
	JOINT RightUpLeg
	{
		OFFSET -2.67219 0.00000 0.00000
		CHANNELS 3 Xrotation Yrotation Zrotation
		JOINT RightLeg
		{
			OFFSET 0.00000 -16.26339 0.00000
			CHANNELS 3 Xrotation Yrotation Zrotation
			JOINT RightFoot
			{
				OFFSET 0.00000 -14.32816 0.00000
				CHANNELS 3 Xrotation Yrotation Zrotation
				JOINT RightToeBase
				{
					OFFSET 0.00000 -1.30219 4.85985
					CHANNELS 3 Xrotation Yrotation Zrotation
					End Site
					{
						OFFSET 0.00000 0.00000 2.95275
					}
				}
			}
		}
	}
}
MOTION
Frames: 9
Frame Time: 0.008333
 -19.4883 29.8285 0.6563 -62.9807 -16.8061 -88.2889 -67.6608 -7.3338 -19.8288 -87.7426 -8.6996 -8.8650 -4.5426 9.7957 32.6708 -107.7320 -43.2849 -7.5231 5.6324 0.0000 -32.6919 14.2227 5.7413 111.5385 33.1476 -0.0000 26.2537 -45.4664 19.0824 -39.7527 -50.4298 35.9905 -5.1651 -5.0709 -0.0000 -40.6673 21.1601 -4.5522 -101.5876 32.8623 0.0000 -24.3270 20.6936 -0.5743 26.0240 35.0353 -0.0000 0.0000 2.5487 -7.0498 -17.9216 -40.9661 0.0000 0.0000 -90.2033 18.9738 -44.3087 88.7571 -0.0000 -0.0000 39.6682 -8.8313 -1.7982 31.0514 0.0000 -0.0000
 -19.4874 29.8116 0.6398 -63.1209 -16.8750 -88.3025 -67.6308 -7.3584 -19.7538 -87.7399 -8.7470 -8.7919 -4.6648 9.7875 32.8014 -107.8091 -43.0982 -7.4689 5.4587 0.0000 -32.5314 14.1764 5.7688 111.6984 33.1476 -0.0000 26.2537 -45.4921 19.0093 -39.6721 -50.5484 35.9665 -5.2369 -4.9549 -0.0000 -40.6463 21.1322 -4.5650 -101.6355 32.8623 0.0000 -24.3270 20.5786 -0.4829 25.9777 35.1190 -0.0000 0.0000 2.5061 -7.0898 -17.9523 -40.9482 0.0000 0.0000 -89.8598 18.7217 -44.0005 92.0043 0.0000 0.0000 39.7166 -8.6531 -2.0855 31.1797 -0.0000 0.0000
 -19.4865 29.7963 0.6249 -63.2820 -16.9320 -88.3271 -67.5858 -7.3779 -19.6472 -87.7398 -8.8506 -8.7551 -4.7809 9.6865 32.8835 -107.6123 -43.0527 -7.1954 5.3924 0.0000 -32.5061 14.1680 5.7770 111.7384 33.1476 -0.0000 26.2537 -45.5601 18.9553 -39.5830 -50.4370 36.0104 -5.3987 -4.9784 -0.0000 -40.8081 21.1468 -4.5689 -101.6367 32.8623 0.0000 -24.3270 20.4721 -0.3365 25.9381 35.1923 -0.0000 0.0000 2.4595 -7.1533 -18.0169 -40.9153 -0.0000 -0.0000 -89.3957 18.4048 -43.6644 95.1819 0.0000 0.0000 39.7777 -8.3858 -2.2951 31.1121 0.0000 -0.0000
 -19.4876 29.7800 0.6096 -63.4303 -16.9850 -88.3230 -67.5375 -7.3939 -19.5657 -87.7387 -8.9755 -8.7097 -4.8475 9.5639 32.9523 -107.4483 -43.0018 -6.8621 5.2582 0.0000 -32.4077 14.1354 5.7650 111.7449 33.1476 -0.0000 26.2537 -45.6065 18.9157 -39.4975 -50.2665 36.0504 -5.6241 -5.0621 -0.0000 -41.0167 21.1789 -4.5783 -101.6410 32.8623 0.0000 -24.3270 20.3572 -0.2069 25.8890 35.2749 0.0000 -0.0000 2.4066 -7.2523 -18.0390 -40.9322 -0.0000 -0.0000 -88.7785 18.1191 -43.4029 98.3161 -0.0000 0.0000 39.8590 -7.4408 -2.7978 31.1182 0.0000 0.0000
 -19.4908 29.7656 0.5950 -63.5561 -17.0241 -88.2878 -67.4740 -7.4041 -19.5256 -87.6932 -9.0902 -8.6265 -4.9016 9.4437 33.0292 -106.9903 -43.0323 -6.3108 5.2478 0.0000 -32.5495 14.2298 5.7698 111.6247 33.1476 -0.0000 26.2537 -45.6450 18.9005 -39.4446 -50.1519 36.0138 -5.8211 -5.1176 -0.0000 -41.2187 21.2133 -4.5982 -101.6697 32.8623 0.0000 -24.3270 20.2530 -0.0773 25.8309 35.3417 0.0000 -0.0000 2.3682 -7.3508 -18.0752 -41.0086 -0.0000 0.0000 -88.2006 17.6872 -43.1492 101.4008 -0.0000 -0.0000 40.0540 -7.1162 -2.9612 30.9799 0.0000 -0.0000
 -19.4920 29.7522 0.5813 -63.6854 -17.0680 -88.2628 -67.4242 -7.4296 -19.4796 -87.6846 -9.1469 -8.5369 -5.0004 9.3306 33.1111 -106.6378 -43.0225 -5.8744 5.1696 0.0000 -32.5958 14.2469 5.7639 111.5804 33.1476 -0.0000 26.2537 -45.6530 18.8830 -39.3960 -50.1292 35.9508 -5.9849 -5.1341 -0.0000 -41.3186 21.2134 -4.6082 -101.6944 32.8623 0.0000 -24.3270 20.1517 0.0647 25.7810 35.3795 0.0000 -0.0000 2.3568 -7.4510 -18.1422 -41.0156 -0.0000 -0.0000 -87.5620 17.1390 -42.8905 104.3992 0.0000 0.0000 40.2350 -6.8926 -3.0537 31.1374 0.0000 -0.0000
 -19.4912 29.7395 0.5690 -63.7736 -17.1269 -88.1969 -67.3991 -7.4713 -19.4788 -87.6807 -9.2249 -8.4275 -5.0824 9.3007 33.2137 -106.2881 -42.9549 -5.4270 5.0525 0.0000 -32.6723 14.2467 5.7481 111.5270 33.1476 -0.0000 26.2537 -45.6819 18.9020 -39.3732 -50.1976 35.8077 -6.0746 -5.0663 -0.0000 -41.3441 21.1853 -4.6250 -101.7526 32.8623 0.0000 -24.3270 20.0380 0.1637 25.7134 35.4006 -0.0000 0.0000 2.3438 -7.5397 -18.1828 -41.0186 0.0000 -0.0000 -86.8415 16.5570 -42.7007 107.3360 0.0000 -0.0000 40.5024 -6.5665 -3.0124 31.0317 0.0000 -0.0000
 -19.4879 29.7258 0.5585 -63.8877 -17.2385 -88.1194 -67.4251 -7.4852 -19.4423 -87.6707 -9.2562 -8.3357 -5.1608 9.2348 33.3490 -105.9164 -42.7847 -4.9114 4.8491 0.0000 -32.7362 14.2479 5.7561 111.5524 33.1476 -0.0000 26.2537 -45.6748 18.9534 -39.4091 -50.4196 35.5862 -6.0980 -4.9282 -0.0000 -41.2432 21.1437 -4.6720 -101.8932 32.8623 0.0000 -24.3270 19.8702 0.2996 25.6149 35.4134 0.0000 0.0000 2.3280 -7.6217 -18.2356 -40.9157 0.0000 0.0000 -86.1047 15.9115 -42.4684 110.1804 0.0000 0.0000 40.8401 -6.2348 -3.1147 30.7208 0.0000 -0.0000
 -19.4825 29.7130 0.5504 -63.9993 -17.3507 -88.0405 -67.4519 -7.5061 -19.3946 -87.6963 -9.2800 -8.2662 -5.2539 9.2086 33.4741 -105.8439 -42.5209 -4.6138 4.4957 0.0000 -32.5825 14.1767 5.7429 111.6101 33.1476 -0.0000 26.2537 -45.7203 19.0213 -39.4332 -50.5421 35.3912 -6.1343 -4.7848 -0.0000 -41.2533 21.0593 -4.6769 -101.9561 32.8623 0.0000 -24.3270 19.7124 0.4415 25.5102 35.4035 -0.0000 -0.0000 2.3016 -7.6920 -18.3146 -40.6805 0.0000 0.0000 -85.2687 15.2332 -42.2432 112.9357 -0.0000 -0.0000 41.2302 -5.7794 -3.0524 30.7870 0.0000 -0.0000
